<?xml version="1.0" encoding="UTF-8" standalone="no"?><!-- Generator: Gravit.io --><svg xmlns="http://www.w3.org/2000/svg" xmlns:xlink="http://www.w3.org/1999/xlink" style="isolation:isolate" viewBox="0 0 1701 420" width="1701pt" height="420pt"><defs><clipPath id="_clipPath_SXHuRpahcVJVw1evnEcTPEXwYLatmVeW"><rect width="1701" height="420"/></clipPath></defs><g clip-path="url(#_clipPath_SXHuRpahcVJVw1evnEcTPEXwYLatmVeW)"><path d=" M 163.6 170.307 L 163.6 170.307 L 163.6 144.249 L 163.6 144.249 Q 163.6 120.009 177.387 105.92 L 177.387 105.92 L 177.387 105.92 Q 191.173 91.83 216.928 91.83 L 216.928 91.83 L 216.928 91.83 Q 226.624 91.83 235.563 93.194 L 235.563 93.194 L 235.563 93.194 Q 244.501 94.557 248.137 94.86 L 248.137 94.86 L 244.804 135.765 L 228.745 134.856 L 228.745 123.948 L 228.745 123.948 Q 228.745 119.706 224.806 108.495 L 224.806 108.495 L 224.806 108.495 Q 220.564 107.889 214.656 107.889 L 214.656 107.889 L 214.656 107.889 Q 208.747 107.889 203.293 110.162 L 203.293 110.162 L 203.293 110.162 Q 197.839 112.434 194.809 115.919 L 194.809 115.919 L 194.809 115.919 Q 191.779 119.403 190.264 126.069 L 190.264 126.069 L 190.264 126.069 Q 188.143 135.462 188.143 153.642 L 188.143 153.642 L 188.749 175.458 L 230.563 175.458 L 229.048 191.82 L 188.143 191.82 L 188.143 274.539 L 188.143 274.539 Q 188.143 290.295 189.052 297.264 L 189.052 297.264 L 190.264 308.475 L 220.261 310.899 L 218.443 326.352 L 201.778 325.746 L 201.778 325.746 Q 182.386 325.14 171.024 325.14 L 171.024 325.14 L 171.024 325.14 Q 159.661 325.14 149.965 325.746 L 149.965 325.746 L 142.087 326.352 L 140.572 310.899 L 160.57 307.869 L 160.57 307.869 Q 160.873 305.142 162.237 297.416 L 162.237 297.416 L 162.237 297.416 Q 163.6 289.689 163.6 283.629 L 163.6 283.629 L 163.6 191.82 L 140.269 191.82 L 139.36 179.094 L 139.36 179.094 Q 142.39 178.185 147.844 176.67 L 147.844 176.67 L 147.844 176.67 Q 159.661 173.034 163.6 170.307 Z  M 282.103 219.999 L 265.482 219.999 L 265.482 172.731 Q 287.254 172.731 315.282 172.731 L 315.282 172.731 L 315.282 172.731 Q 343.309 172.731 354.066 188.487 L 354.066 188.487 L 354.066 188.487 Q 364.822 204.243 364.822 236.967 L 364.822 236.967 L 364.822 283.629 L 364.822 283.629 Q 364.822 290.598 367.852 307.869 L 367.852 307.869 L 388.759 309.384 L 386.941 326.352 L 376.942 325.746 L 376.942 325.746 Q 363.004 325.14 347.551 325.14 L 347.551 325.14 L 343.309 301.203 L 343.309 301.203 Q 337.249 312.414 322.857 320.292 L 322.857 320.292 L 322.857 320.292 Q 308.464 328.17 290.89 328.17 L 290.89 328.17 L 290.89 328.17 Q 273.316 328.17 262.257 317.414 L 262.257 317.414 L 262.257 317.414 Q 251.197 306.657 251.197 289.538 L 251.197 289.538 L 251.197 289.538 Q 251.197 272.418 259.984 263.631 L 259.984 263.631 L 259.984 263.631 Q 268.771 254.844 282.103 251.36 L 282.103 251.36 L 282.103 251.36 Q 295.435 247.875 340.279 240.906 L 340.279 240.906 L 340.279 230.907 L 340.279 230.907 Q 340.279 189.093 311.797 189.093 L 311.797 189.093 L 311.797 189.093 Q 295.132 189.093 283.618 194.85 L 283.618 194.85 L 283.618 194.85 L 282.103 208.788 L 282.103 219.999 Z  M 277.861 286.356 L 277.861 286.356 L 277.861 286.356 Q 277.861 308.778 302.404 308.778 L 302.404 308.778 L 302.404 308.778 Q 315.433 308.778 326.644 299.082 L 326.644 299.082 L 326.644 299.082 Q 337.855 289.386 340.279 274.539 L 340.279 274.539 L 340.279 256.359 L 340.279 256.359 Q 338.764 256.662 322.857 259.389 L 322.857 259.389 L 322.857 259.389 Q 306.949 262.116 296.95 264.54 L 296.95 264.54 L 296.95 264.54 Q 277.861 269.388 277.861 286.356 Z  M 545.743 247.421 L 545.743 247.421 L 545.743 247.421 Q 545.743 281.205 526.654 304.688 L 526.654 304.688 L 526.654 304.688 Q 507.565 328.17 476.356 328.17 L 476.356 328.17 L 476.356 328.17 Q 445.147 328.17 416.665 317.262 L 416.665 317.262 L 417.877 303.021 L 417.877 303.021 Q 419.089 293.022 419.089 283.932 L 419.089 283.932 L 419.089 137.28 L 419.089 137.28 Q 419.089 132.735 417.726 125.009 L 417.726 125.009 L 417.726 125.009 Q 416.362 117.282 416.059 113.04 L 416.059 113.04 L 393.031 109.404 L 394.546 93.042 L 394.546 93.042 Q 417.877 96.072 425.907 96.072 L 425.907 96.072 L 425.907 96.072 Q 433.936 96.072 439.39 95.466 L 439.39 95.466 L 443.935 94.86 L 445.753 96.678 L 444.541 116.07 L 444.541 116.07 Q 443.632 126.675 443.632 146.673 L 443.632 146.673 L 443.632 195.456 L 443.632 195.456 Q 449.086 186.972 459.843 179.852 L 459.843 179.852 L 459.843 179.852 Q 470.599 172.731 483.628 172.731 L 483.628 172.731 L 483.628 172.731 Q 514.534 172.731 530.139 193.184 L 530.139 193.184 L 530.139 193.184 Q 545.743 213.636 545.743 247.421 Z  M 443.632 235.149 L 443.632 274.539 L 445.45 307.566 L 445.45 307.566 Q 459.994 311.202 474.235 311.202 L 474.235 311.202 L 474.235 311.202 Q 497.263 311.202 507.868 293.628 L 507.868 293.628 L 507.868 293.628 Q 518.473 276.054 518.473 248.178 L 518.473 248.178 L 518.473 248.178 Q 518.473 191.214 481.204 191.214 L 481.204 191.214 L 481.204 191.214 Q 463.024 191.214 453.48 205.001 L 453.48 205.001 L 453.48 205.001 Q 443.935 218.787 443.935 239.088 L 443.935 239.088 L 443.632 235.149 Z  M 613.342 239.088 L 613.342 239.088 L 613.342 274.539 L 613.342 274.539 Q 613.342 290.598 614.251 296.961 L 614.251 296.961 L 615.463 307.869 L 645.46 310.293 L 643.642 326.352 L 626.977 325.746 L 626.977 325.746 Q 607.585 325.14 596.223 325.14 L 596.223 325.14 L 596.223 325.14 Q 584.86 325.14 575.164 325.746 L 575.164 325.746 L 567.286 326.352 L 565.771 310.899 L 585.769 307.869 L 585.769 307.869 Q 586.072 305.142 587.436 297.416 L 587.436 297.416 L 587.436 297.416 Q 588.799 289.689 588.799 283.629 L 588.799 283.629 L 588.799 216.969 L 588.799 216.969 Q 588.799 215.151 587.284 206.667 L 587.284 206.667 L 587.284 206.667 Q 585.769 198.183 584.557 190.911 L 584.557 190.911 L 562.741 187.275 L 564.256 171.822 L 573.649 172.731 L 573.649 172.731 Q 579.406 173.64 588.951 173.64 L 588.951 173.64 L 588.951 173.64 Q 598.495 173.64 600.616 173.337 L 600.616 173.337 L 604.252 172.731 L 606.07 174.549 L 610.615 201.213 L 610.615 201.213 Q 627.886 172.731 659.398 172.731 L 659.398 172.731 L 659.398 172.731 Q 667.882 172.731 673.942 174.246 L 673.942 174.246 L 680.002 175.761 L 676.972 225.756 L 659.701 224.847 L 659.398 208.788 L 659.398 208.788 Q 659.398 206.364 655.156 193.638 L 655.156 193.638 L 655.156 193.638 Q 633.946 193.638 624.099 205.001 L 624.099 205.001 L 624.099 205.001 Q 614.251 216.363 613.342 239.088 Z  M 704.272 126.675 L 704.272 126.675 L 704.272 126.675 Q 704.272 117.585 708.817 112.283 L 708.817 112.283 L 708.817 112.283 Q 713.362 106.98 721.998 106.98 L 721.998 106.98 L 721.998 106.98 Q 730.633 106.98 735.33 112.131 L 735.33 112.131 L 735.33 112.131 Q 740.026 117.282 740.026 126.524 L 740.026 126.524 L 740.026 126.524 Q 740.026 135.765 735.481 140.916 L 735.481 140.916 L 735.481 140.916 Q 730.936 146.067 722.149 146.067 L 722.149 146.067 L 722.149 146.067 Q 713.362 146.067 708.817 140.916 L 708.817 140.916 L 708.817 140.916 Q 704.272 135.765 704.272 126.675 Z  M 686.698 189.093 L 688.213 172.731 L 688.213 172.731 Q 709.423 175.458 719.725 175.458 L 719.725 175.458 L 719.725 175.458 Q 730.027 175.458 732.754 175.155 L 732.754 175.155 L 737.602 174.549 L 739.42 176.367 L 738.208 195.456 L 738.208 195.456 Q 737.299 206.061 737.299 226.059 L 737.299 226.059 L 737.299 274.539 L 737.299 274.539 Q 737.299 290.598 738.208 296.961 L 738.208 296.961 L 739.42 307.869 L 763.054 309.687 L 761.236 326.352 L 746.692 325.746 L 746.692 325.746 Q 729.724 325.14 719.422 325.14 L 719.422 325.14 L 719.422 325.14 Q 709.12 325.14 697.606 325.746 L 697.606 325.746 L 687.91 326.352 L 686.395 311.505 L 709.726 307.869 L 709.726 307.869 Q 710.029 305.142 711.393 297.416 L 711.393 297.416 L 711.393 297.416 Q 712.756 289.689 712.756 283.629 L 712.756 283.629 L 712.756 216.969 L 712.756 216.969 Q 712.756 212.424 711.393 204.698 L 711.393 204.698 L 711.393 204.698 Q 710.029 196.971 709.726 192.729 L 709.726 192.729 L 686.698 189.093 Z  M 806.716 250.451 L 806.716 250.451 L 806.716 250.451 Q 806.716 275.751 816.715 292.113 L 816.715 292.113 L 816.715 292.113 Q 826.714 308.475 848.076 308.475 L 848.076 308.475 L 848.076 308.475 Q 869.437 308.475 890.344 297.567 L 890.344 297.567 L 898.828 311.808 L 898.828 311.808 Q 893.071 316.656 884.89 319.989 L 884.89 319.989 L 884.89 319.989 Q 869.134 328.17 847.621 328.17 L 847.621 328.17 L 847.621 328.17 Q 813.988 328.17 796.111 307.263 L 796.111 307.263 L 796.111 307.263 Q 778.234 286.356 778.234 250.602 L 778.234 250.602 L 778.234 250.602 Q 778.234 214.848 796.111 193.79 L 796.111 193.79 L 796.111 193.79 Q 813.988 172.731 847.924 172.731 L 847.924 172.731 L 847.924 172.731 L 866.482 172.731 L 895.482 172.731 L 892.465 221.211 L 874.891 220.302 L 874.891 209.394 L 874.891 209.394 Q 874.891 206.97 872.77 199.092 L 872.77 199.092 L 872.77 199.092 Q 861.862 190.002 847.924 190.002 L 847.924 190.002 L 847.924 190.002 Q 826.714 190.002 816.715 207.576 L 816.715 207.576 L 816.715 207.576 Q 806.716 225.15 806.716 250.451 Z  M 951.277 219.999 L 933.703 220.908 L 934.482 172.731 Q 957.64 172.731 985.668 172.731 L 985.668 172.731 L 985.668 172.731 Q 1013.695 172.731 1024.452 188.487 L 1024.452 188.487 L 1024.452 188.487 Q 1035.209 204.243 1035.209 236.967 L 1035.209 236.967 L 1035.209 283.629 L 1035.209 283.629 Q 1035.209 290.598 1038.238 307.869 L 1038.238 307.869 L 1059.145 309.384 L 1057.327 326.352 L 1047.328 325.746 L 1047.328 325.746 Q 1033.39 325.14 1017.937 325.14 L 1017.937 325.14 L 1013.695 301.203 L 1013.695 301.203 Q 1007.635 312.414 993.243 320.292 L 993.243 320.292 L 993.243 320.292 Q 978.85 328.17 961.276 328.17 L 961.276 328.17 L 961.276 328.17 Q 943.702 328.17 932.643 317.414 L 932.643 317.414 L 932.643 317.414 Q 921.583 306.657 921.583 289.538 L 921.583 289.538 L 921.583 289.538 Q 921.583 272.418 930.37 263.631 L 930.37 263.631 L 930.37 263.631 Q 939.157 254.844 952.489 251.36 L 952.489 251.36 L 952.489 251.36 Q 965.821 247.875 1010.665 240.906 L 1010.665 240.906 L 1010.665 230.907 L 1010.665 230.907 Q 1010.665 189.093 982.183 189.093 L 982.183 189.093 L 982.183 189.093 Q 965.518 189.093 954.004 194.85 L 954.004 194.85 L 954.004 194.85 L 951.277 209.091 L 951.277 219.999 Z  M 948.247 286.356 L 948.247 286.356 L 948.247 286.356 Q 948.247 308.778 972.79 308.778 L 972.79 308.778 L 972.79 308.778 Q 985.819 308.778 997.03 299.082 L 997.03 299.082 L 997.03 299.082 Q 1008.241 289.386 1010.665 274.539 L 1010.665 274.539 L 1010.665 256.359 L 1010.665 256.359 Q 1009.15 256.662 993.243 259.389 L 993.243 259.389 L 993.243 259.389 Q 977.335 262.116 967.336 264.54 L 967.336 264.54 L 967.336 264.54 Q 948.247 269.388 948.247 286.356 Z  M 1131.592 308.778 L 1131.592 308.778 L 1131.592 308.778 Q 1142.5 308.778 1155.529 299.991 L 1155.529 299.991 L 1164.013 312.414 L 1164.013 312.414 Q 1143.712 328.17 1127.653 328.17 L 1127.653 328.17 L 1127.653 328.17 Q 1106.747 328.17 1097.959 316.05 L 1097.959 316.05 L 1097.959 316.05 Q 1089.173 303.93 1089.173 277.872 L 1089.173 277.872 L 1089.173 191.82 L 1065.841 191.82 L 1064.932 179.094 L 1064.932 179.094 Q 1067.962 178.185 1073.416 176.67 L 1073.416 176.67 L 1073.416 176.67 Q 1085.233 173.034 1089.173 170.307 L 1089.173 170.307 L 1089.173 170.307 Q 1089.475 170.004 1097.05 155.46 L 1097.05 155.46 L 1103.11 143.037 L 1115.231 144.249 L 1115.231 175.458 L 1157.65 175.458 L 1156.135 191.82 L 1115.231 191.82 L 1115.231 285.144 L 1115.231 285.144 Q 1115.231 308.778 1131.592 308.778 Z  M 1244.642 172.731 L 1244.642 172.731 L 1244.642 172.731 Q 1278.577 172.731 1296.303 193.638 L 1296.303 193.638 L 1296.303 193.638 Q 1314.029 214.545 1314.029 250.299 L 1314.029 250.299 L 1314.029 250.299 Q 1314.029 286.053 1296 307.112 L 1296 307.112 L 1296 307.112 Q 1277.971 328.17 1244.338 328.17 L 1244.338 328.17 L 1244.338 328.17 Q 1210.705 328.17 1192.677 307.112 L 1192.677 307.112 L 1192.677 307.112 Q 1174.648 286.053 1174.648 250.451 L 1174.648 250.451 L 1174.648 250.451 Q 1174.648 214.848 1192.677 193.79 L 1192.677 193.79 L 1192.677 193.79 Q 1210.705 172.731 1244.642 172.731 Z  M 1275.85 293.931 L 1275.85 293.931 L 1275.85 293.931 Q 1285.547 276.963 1285.547 250.602 L 1285.547 250.602 L 1285.547 250.602 Q 1285.547 224.241 1275.85 207.122 L 1275.85 207.122 L 1275.85 207.122 Q 1266.154 190.002 1244.338 190.002 L 1244.338 190.002 L 1244.338 190.002 Q 1222.522 190.002 1212.827 207.122 L 1212.827 207.122 L 1212.827 207.122 Q 1203.131 224.241 1203.131 250.602 L 1203.131 250.602 L 1203.131 250.602 Q 1203.131 276.963 1212.827 293.931 L 1212.827 293.931 L 1212.827 293.931 Q 1222.522 310.899 1244.338 310.899 L 1244.338 310.899 L 1244.338 310.899 Q 1266.154 310.899 1275.85 293.931 Z  M 1381.628 239.088 L 1381.628 239.088 L 1381.628 274.539 L 1381.628 274.539 Q 1381.628 290.598 1382.537 296.961 L 1382.537 296.961 L 1383.749 307.869 L 1413.746 310.293 L 1411.928 326.352 L 1395.263 325.746 L 1395.263 325.746 Q 1375.871 325.14 1364.508 325.14 L 1364.508 325.14 L 1364.508 325.14 Q 1353.146 325.14 1343.45 325.746 L 1343.45 325.746 L 1335.572 326.352 L 1334.057 310.899 L 1354.055 307.869 L 1354.055 307.869 Q 1354.358 305.142 1355.721 297.416 L 1355.721 297.416 L 1355.721 297.416 Q 1357.085 289.689 1357.085 283.629 L 1357.085 283.629 L 1357.085 216.969 L 1357.085 216.969 Q 1357.085 215.151 1355.57 206.667 L 1355.57 206.667 L 1355.57 206.667 Q 1354.055 198.183 1352.843 190.911 L 1352.843 190.911 L 1331.027 187.275 L 1332.542 171.822 L 1341.935 172.731 L 1341.935 172.731 Q 1347.692 173.64 1357.236 173.64 L 1357.236 173.64 L 1357.236 173.64 Q 1366.781 173.64 1368.902 173.337 L 1368.902 173.337 L 1372.538 172.731 L 1374.356 174.549 L 1378.901 201.213 L 1378.901 201.213 Q 1396.172 172.731 1427.684 172.731 L 1427.684 172.731 L 1427.684 172.731 Q 1436.168 172.731 1442.228 174.246 L 1442.228 174.246 L 1448.288 175.761 L 1445.258 225.756 L 1427.987 224.847 L 1427.684 208.788 L 1427.684 208.788 Q 1427.684 206.364 1423.442 193.638 L 1423.442 193.638 L 1423.442 193.638 Q 1402.232 193.638 1392.384 205.001 L 1392.384 205.001 L 1392.384 205.001 Q 1382.537 216.363 1381.628 239.088 Z  M 1508.312 328.17 L 1508.312 328.17 L 1508.312 328.17 Q 1480.133 328.17 1458.317 316.353 L 1458.317 316.353 L 1461.65 275.145 L 1479.224 276.054 L 1479.224 287.568 L 1479.224 287.568 Q 1479.224 291.204 1483.466 305.748 L 1483.466 305.748 L 1483.466 305.748 Q 1491.95 312.717 1509.221 312.717 L 1509.221 312.717 L 1509.221 312.717 Q 1536.794 312.717 1536.794 289.689 L 1536.794 289.689 L 1536.794 289.689 Q 1536.794 280.902 1528.764 274.388 L 1528.764 274.388 L 1528.764 274.388 Q 1520.735 267.873 1509.524 262.874 L 1509.524 262.874 L 1509.524 262.874 Q 1498.313 257.874 1486.95 252.269 L 1486.95 252.269 L 1486.95 252.269 Q 1475.588 246.663 1467.558 236.664 L 1467.558 236.664 L 1467.558 236.664 Q 1459.529 226.665 1459.529 213.03 L 1459.529 213.03 L 1459.529 213.03 Q 1459.529 194.244 1473.315 183.488 L 1473.315 183.488 L 1473.315 183.488 Q 1487.102 172.731 1509.372 172.731 L 1509.372 172.731 L 1509.372 172.731 Q 1531.643 172.731 1554.065 177.882 L 1554.065 177.882 L 1550.429 221.211 L 1532.855 220.302 L 1532.855 209.394 L 1532.855 209.394 Q 1532.855 206.061 1528.613 192.123 L 1528.613 192.123 L 1528.613 192.123 Q 1520.129 188.487 1508.615 188.487 L 1508.615 188.487 L 1508.615 188.487 Q 1497.101 188.487 1490.435 193.79 L 1490.435 193.79 L 1490.435 193.79 Q 1483.769 199.092 1483.769 207.879 L 1483.769 207.879 L 1483.769 207.879 Q 1483.769 216.666 1491.798 223.181 L 1491.798 223.181 L 1491.798 223.181 Q 1499.828 229.695 1511.19 234.695 L 1511.19 234.695 L 1511.19 234.695 Q 1522.553 239.694 1534.067 245.3 L 1534.067 245.3 L 1534.067 245.3 Q 1545.581 250.905 1553.61 260.753 L 1553.61 260.753 L 1553.61 260.753 Q 1561.64 270.6 1561.64 283.932 L 1561.64 283.932 L 1561.64 283.932 Q 1561.64 328.17 1508.312 328.17 Z " fill="rgb(0,0,0)"/></g></svg>