<?xml version="1.0" encoding="UTF-8" standalone="no"?><!-- Generator: Gravit.io --><svg xmlns="http://www.w3.org/2000/svg" xmlns:xlink="http://www.w3.org/1999/xlink" style="isolation:isolate" viewBox="0 0 200 200" width="200pt" height="200pt"><defs><clipPath id="_clipPath_HH3RraT61NULZlkP7xJGRYDe1oPBqgo1"><rect width="200" height="200"/></clipPath></defs><g clip-path="url(#_clipPath_HH3RraT61NULZlkP7xJGRYDe1oPBqgo1)"><rect width="200" height="200" style="fill:rgb(36,37,41)"/><path d=" M 81.569 76.29 L 81.569 76.29 L 81.569 60.359 L 81.569 60.359 Q 81.569 45.54 89.997 36.927 L 89.997 36.927 L 89.997 36.927 Q 98.425 28.313 114.171 28.313 L 114.171 28.313 L 114.171 28.313 Q 120.098 28.313 125.563 29.147 L 125.563 29.147 L 125.563 29.147 Q 131.027 29.98 133.25 30.165 L 133.25 30.165 L 131.213 55.172 L 121.395 54.617 L 121.395 47.948 L 121.395 47.948 Q 121.395 45.355 118.987 38.501 L 118.987 38.501 L 118.987 38.501 Q 116.394 38.131 112.782 38.131 L 112.782 38.131 L 112.782 38.131 Q 109.169 38.131 105.835 39.52 L 105.835 39.52 L 105.835 39.52 Q 102.501 40.909 100.648 43.04 L 100.648 43.04 L 100.648 43.04 Q 98.796 45.17 97.87 49.245 L 97.87 49.245 L 97.87 49.245 Q 96.573 54.987 96.573 66.101 L 96.573 66.101 L 96.944 79.439 L 122.506 79.439 L 121.58 89.441 L 96.573 89.441 L 96.573 140.011 L 96.573 140.011 Q 96.573 149.644 97.129 153.904 L 97.129 153.904 L 97.87 160.758 L 116.208 162.24 L 115.097 171.687 L 104.909 171.317 L 104.909 171.317 Q 93.054 170.946 86.107 170.946 L 86.107 170.946 L 86.107 170.946 Q 79.161 170.946 73.233 171.317 L 73.233 171.317 L 68.417 171.687 L 67.491 162.24 L 79.716 160.388 L 79.716 160.388 Q 79.902 158.72 80.736 153.997 L 80.736 153.997 L 80.736 153.997 Q 81.569 149.273 81.569 145.569 L 81.569 145.569 L 81.569 89.441 L 67.306 89.441 L 66.75 81.661 L 66.75 81.661 Q 68.602 81.106 71.936 80.18 L 71.936 80.18 L 71.936 80.18 Q 79.161 77.957 81.569 76.29 Z " fill="rgb(255,255,255)"/></g></svg>